<?xml version="1.0" standalone="no"?>
<!DOCTYPE svg PUBLIC "-//W3C//DTD SVG 20010904//EN"
 "http://www.w3.org/TR/2001/REC-SVG-20010904/DTD/svg10.dtd">
<svg version="1.0" xmlns="http://www.w3.org/2000/svg"
 width="518.000000pt" height="518.000000pt" viewBox="0 0 518.000000 518.000000"
 preserveAspectRatio="xMidYMid meet">
<metadata>
Created by potrace 1.11, written by Peter Selinger 2001-2013
</metadata>
<g transform="translate(0.000000,518.000000) scale(0.100000,-0.100000)"
fill="#000000" stroke="none">
<path d="M1355 4836 c-44 -23 -111 -60 -150 -81 -38 -21 -119 -65 -180 -98
-60 -33 -128 -70 -150 -82 -22 -12 -121 -66 -220 -120 -99 -53 -181 -98 -182
-99 -1 -1 28 -58 65 -126 37 -69 92 -170 122 -225 29 -55 66 -122 82 -148 15
-26 28 -50 28 -52 0 -2 35 -68 78 -147 44 -79 94 -171 112 -205 l33 -62 39 20
c22 11 182 98 356 193 174 95 324 176 332 180 8 4 24 12 35 19 11 7 61 34 112
62 l92 49 -56 106 c-31 58 -59 110 -63 115 -6 9 -29 51 -135 250 -21 39 -45
84 -55 100 -9 17 -34 62 -55 100 -38 72 -157 288 -159 292 -1 1 -37 -17 -81
-41z"/>
<path d="M2865 4313 c-93 -52 -217 -120 -275 -151 -58 -32 -196 -106 -307
-167 l-202 -110 60 -113 c33 -62 74 -136 90 -163 16 -27 29 -52 29 -54 0 -3
22 -44 49 -92 26 -49 60 -108 73 -133 14 -25 58 -106 98 -180 81 -151 121
-224 125 -228 1 -1 33 15 71 36 38 21 110 60 159 87 50 26 95 51 100 55 6 4
60 33 120 65 61 32 119 64 130 70 11 7 56 32 100 55 44 24 105 57 135 73 30
17 70 38 88 48 65 34 66 28 -15 177 -113 207 -138 253 -165 302 -14 25 -45 81
-68 125 -24 44 -75 139 -114 210 -39 72 -78 142 -85 158 -8 15 -17 27 -20 26
-3 -1 -82 -44 -176 -96z"/>
<path d="M4565 3891 c-50 -26 -162 -87 -250 -136 -88 -48 -187 -102 -220 -120
-126 -68 -400 -218 -402 -219 -1 -1 28 -58 66 -126 37 -69 89 -165 116 -215
45 -84 125 -230 183 -335 13 -25 45 -83 70 -130 25 -47 56 -102 67 -122 l21
-37 140 75 c76 42 166 91 199 109 33 18 161 87 285 155 280 153 334 182 337
184 2 1 -58 114 -133 252 -75 137 -151 276 -169 309 -79 146 -218 400 -219
402 -1 1 -42 -20 -91 -46z"/>
<path d="M1980 3836 c-61 -32 -256 -137 -270 -146 -8 -5 -37 -21 -65 -36 -27
-14 -151 -82 -275 -149 -124 -67 -249 -135 -277 -151 l-53 -28 54 -100 c29
-56 65 -122 80 -148 57 -104 76 -140 171 -313 54 -99 110 -202 125 -230 15
-27 42 -77 60 -110 18 -33 34 -61 35 -62 1 -2 134 70 296 158 162 88 332 181
379 206 79 42 282 154 287 158 2 1 -114 217 -234 435 -17 30 -52 96 -78 145
-26 50 -51 95 -55 100 -4 6 -28 48 -53 95 -41 79 -98 182 -101 187 -1 1 -13
-4 -26 -11z"/>
<path d="M3545 3336 c-80 -43 -147 -79 -260 -141 -162 -89 -390 -213 -474
-257 -52 -28 -107 -58 -122 -67 l-27 -17 47 -89 c44 -83 69 -129 141 -260 15
-27 85 -156 155 -285 70 -129 140 -256 154 -282 l27 -47 139 75 c77 42 167 91
200 109 33 18 80 44 105 57 25 14 74 41 110 60 113 61 405 221 408 223 1 1
-17 38 -41 81 -59 108 -114 208 -150 274 -16 30 -56 102 -87 160 -32 58 -72
132 -90 165 -54 101 -107 198 -132 242 l-24 42 -79 -43z"/>
<path d="M880 3223 c-77 -41 -339 -184 -480 -261 -96 -52 -324 -176 -362 -196
l-36 -20 20 -40 c12 -23 42 -79 68 -126 26 -47 65 -119 87 -160 162 -300 343
-633 348 -638 1 -1 38 17 81 41 43 24 108 60 144 79 74 40 155 84 220 120 25
14 81 44 125 68 147 79 388 211 393 215 1 1 -17 38 -41 81 -69 125 -112 204
-152 279 -21 39 -45 84 -55 100 -10 17 -36 64 -58 105 -22 41 -63 118 -92 170
-29 52 -68 124 -86 159 -19 36 -36 66 -37 67 -1 2 -41 -18 -87 -43z"/>
<path d="M2390 2714 c-107 -58 -233 -127 -280 -152 -47 -25 -112 -61 -145 -79
-33 -18 -124 -68 -202 -110 l-143 -77 44 -80 c81 -151 103 -191 146 -271 24
-44 78 -143 120 -220 88 -160 153 -279 189 -347 l25 -46 40 20 c23 11 138 74
256 138 118 65 251 137 295 161 45 24 147 80 227 124 l147 79 -53 101 c-29 55
-67 124 -85 153 -17 29 -31 55 -31 57 0 3 -35 69 -79 147 -43 79 -95 175 -116
213 -44 83 -157 289 -159 292 -1 1 -89 -45 -196 -103z"/>
<path d="M4105 2296 c-44 -24 -109 -59 -145 -79 -192 -104 -505 -275 -575
-312 -44 -24 -99 -54 -122 -67 l-42 -24 70 -130 c39 -71 93 -172 121 -224 28
-52 54 -99 58 -105 4 -5 26 -46 50 -90 24 -44 63 -117 87 -163 25 -46 66 -121
92 -167 l46 -83 30 15 c24 12 379 205 780 423 33 18 81 45 107 58 l46 26 -20
40 c-12 23 -42 79 -68 126 -26 47 -66 121 -90 165 -87 162 -114 211 -146 268
-19 32 -34 60 -34 62 0 3 -156 291 -164 302 -1 1 -37 -17 -81 -41z"/>
<path d="M3125 1771 c-6 -4 -49 -29 -97 -54 -47 -26 -102 -55 -122 -66 -19
-11 -66 -37 -103 -57 -37 -20 -117 -64 -178 -97 -60 -33 -134 -73 -162 -88
-29 -16 -77 -42 -105 -58 -29 -16 -80 -43 -113 -61 -33 -18 -61 -33 -62 -34
-3 -2 51 -105 78 -151 10 -16 29 -50 42 -75 61 -116 121 -226 127 -235 4 -5
29 -50 55 -100 46 -87 216 -398 219 -402 2 -2 168 87 340 181 76 42 118 65
414 226 l211 114 -56 106 c-31 58 -65 121 -76 140 -11 19 -35 64 -55 100 -19
36 -60 112 -92 170 -32 58 -75 137 -95 175 -148 272 -154 282 -170 266z"/>
</g>
</svg>
